HIERARCHY
ROOT simHips
{
  OFFSET -2.06402 30.543 -2.21415
  CHANNELS 6 Xposition Yposition Zposition Zrotation Xrotation Yrotation
  JOINT simSpine
  {
    OFFSET -0.000355721 21.3001 -0.016921
    CHANNELS 3 Zrotation Xrotation Yrotation
    JOINT simLeftArm
    {
      OFFSET 13.5181 21.3012 0
      CHANNELS 3 Zrotation Xrotation Yrotation
      JOINT simLeftForeArm
      {
        OFFSET 24.5783 0 0
        CHANNELS 3 Zrotation Xrotation Yrotation
        JOINT simLeftHand
        {
          OFFSET 24.5783 0 0
          CHANNELS 3 Zrotation Xrotation Yrotation
          End Site
          {
            OFFSET 7.32568 1.52588e-05 0.0169305
          }
        }
      }
    }
    JOINT simHead
    {
      OFFSET 0 27.4458 -0.00489235
      CHANNELS 3 Zrotation Xrotation Yrotation
      End Site
      {
        OFFSET 0 0 0
      }
    }
    JOINT simRightArm
    {
      OFFSET -13.5174 21.3012 0
      CHANNELS 3 Zrotation Xrotation Yrotation
      JOINT simRightForeArm
      {
        OFFSET -24.5783 0 0
        CHANNELS 3 Zrotation Xrotation Yrotation
        JOINT simRightHand
        {
          OFFSET -24.5783 0 0
          CHANNELS 3 Zrotation Xrotation Yrotation
          End Site
          {
            OFFSET -7.32568 1.52588e-05 0.0169305
          }
        }
      }
    }
  }
  JOINT simRightUpLeg
  {
    OFFSET -8.44614 -9.41038 0.835684
    CHANNELS 3 Zrotation Xrotation Yrotation
    JOINT simRightLeg
    {
      OFFSET 0 -40.9639 0
      CHANNELS 3 Zrotation Xrotation Yrotation
      JOINT simRightFoot
      {
        OFFSET 0 -40.9639 0
        CHANNELS 3 Zrotation Xrotation Yrotation
        End Site
        {
          OFFSET 0.50614 -9.67405 14.6709
        }
      }
    }
  }
  JOINT simLeftUpLeg
  {
    OFFSET 8.44614 -9.41038 0.835684
    CHANNELS 3 Zrotation Xrotation Yrotation
    JOINT simLeftLeg
    {
      OFFSET 0 -40.9639 0
      CHANNELS 3 Zrotation Xrotation Yrotation
      JOINT simLeftFoot
      {
        OFFSET 0 -40.9639 0
        CHANNELS 3 Zrotation Xrotation Yrotation
        End Site
        {
          OFFSET -0.50614 -9.67405 14.6709
        }
      }
    }
  }
}
MOTION
Frames:	28
Frame Time:	0.0333333
-29.1003 52.3569 36.058 -37.2842 6.85748 -178.779 21.3865 76.4415 -31.3114 -14.094 -0.0429579 -96.9353 -0.0010264 7.53832e-06 -60.3941 17.1896 5.06659 15.4475 -21.0646 7.25961 30.1552 58.3413 -10.9208 34.4413 0.0218815 -5.71875e-06 34.0361 -82.1506 -5.97172 -17.6324 19.4322 -58.9682 -16.9906 -178.258 46.1605 173.205 15.016 6.41206 -0.301059 18.0882 -37.7749 16.2936 -167.078 80.6943 162.456 -28.2699 -37.4937 -19.6688 
-25.2847 49.0751 36.9603 -43.5064 7.05327 -165.331 26.5343 75.7226 -36.6487 -13.5944 -9.13212 -99.2818 -0.00108119 8.76792e-06 -54.9274 3.38747 -18.8782 15.2397 -22.4066 10.6298 31.9287 59.0476 -10.9399 26.8508 0.000636513 -5.96001e-06 30.2715 -85.5118 -10.5471 -26.6042 23.5629 -60.42 -3.87597 -177.806 39.6083 173.794 8.74551 3.95844 -7.82467 18.7266 -39.0613 17.0281 -147.489 84.0943 136.773 -33.2753 -23.6084 -22.0559 
-21.6041 45.7681 36.7688 -49.4552 5.41406 -152.114 32.3769 74.5573 -42.1492 -21.3208 -13.9467 -101.219 -0.00111554 7.87086e-06 -58.9474 11.5128 -21.3093 12.1812 -23.6456 13.0972 34.3261 60.7565 -10.6757 19.6274 -4.72786e-05 -6.1471e-06 27.0315 -89.5277 -14.3775 -35.8147 28.32 -62.4585 8.91024 -177.865 34.2916 169.635 -0.882117 4.41467 -16.2712 17.8752 -40.9767 18.0309 -109.565 85.7082 98.8628 -31.1366 -9.53571 -21.2116 
-18.2774 42.6998 35.4352 -54.0653 2.44226 -139.789 37.9199 72.9065 -47.1871 -31.8813 -18.7949 -93.0308 -0.00113232 7.0726e-06 -62.3862 13.0222 -23.245 9.48677 -24.7805 14.2174 37.4455 62.4881 -10.5234 10.6646 -0.000355609 -5.97782e-06 29.9769 -92.3054 -18.7541 -49.9448 29.0711 -63.114 22.407 -178.709 28.7892 171.115 -10.3947 2.01523 -15.6491 16.0299 -42.8795 18.6095 -64.1802 84.7357 53.8558 -25.4371 2.10503 -18.8702 
-15.861 40.416 33.125 -56.6505 -1.08411 -128.886 41.43 71.1839 -49.8694 -32.8031 -25.7866 -74.5832 -0.00113324 7.18482e-06 -61.9096 16.8748 -23.7592 6.10105 -26.106 14.3645 41.1723 63.7033 -8.29731 3.89639 -0.000623315 -5.97014e-06 30.1043 -97.3263 -28.1904 -69.5063 25.3949 -61.1606 31.7937 -179.891 27.9104 175.389 -10.9092 0.939451 -4.90043 14.1978 -44.0863 18.4253 -39.5468 81.9194 29.2272 -21.2892 8.65805 -15.6664 
-14.6626 38.8801 30.4063 -57.6439 -5.18361 -119.611 41.0545 70.0067 -48.5242 -24.3431 -28.7567 -50.5892 -0.00111973 8.22592e-06 -57.378 21.6484 -25.1276 1.41466 -27.2932 14.0385 44.7765 67.9532 -9.02097 -2.60484 -0.000851887 -5.86663e-06 31.7758 -101.599 -36.3764 -81.1798 23.0449 -57.1793 33.9971 179.204 27.7326 174.516 -4.92794 -2.09152 1.97677 11.971 -45.6891 18.0012 -30.1656 79.5598 20.7172 -17.6636 10.1433 -12.3401 
-14.3224 37.8224 27.4728 -57.5779 -9.64249 -111.55 37.477 69.4407 -43.7648 -15.2122 -26.1014 -32.7548 -0.00109325 9.93016e-06 -49.3993 22.5365 -34.2101 -4.98698 -27.4529 13.459 47.0587 70.3105 -13.6093 -8.97895 -0.0010431 -5.52093e-06 36.868 -102.38 -37.2848 -94.0704 20.6276 -53.584 31.2097 179.026 27.1517 174.673 1.77096 -6.10339 2.59742 9.09412 -47.6089 17.4414 -26.6553 78.2949 19.4018 -12.7454 9.96452 -9.34268 
-14.4893 37.0959 24.7466 -56.9404 -13.7061 -104.231 32.694 69.2209 -37.5569 -10.069 -21.1177 -22.9984 -0.00105514 1.17931e-05 -39.3872 25.3664 -39.1811 -6.53389 -26.2916 12.6953 47.2394 71.7188 -16.2328 -13.1315 -0.00119966 -5.4621e-06 37.6745 -103.626 -38.0584 -103.345 18.2324 -50.9022 25.3256 179.475 26.7402 175.32 6.16126 -9.98748 -0.316512 6.14859 -49.3526 16.7729 -26.0067 77.9841 23.5231 -5.96146 8.02391 -7.32401 
-14.8911 36.6455 22.5284 -56.1197 -16.919 -97.5456 27.9797 69.2167 -31.395 -10.6814 -16.2033 -15.9761 -0.00100556 1.27663e-05 -33.2121 28.0803 -47.2398 -4.52036 -24.5884 11.7218 45.6329 70.3314 -15.424 -16.3021 -0.00132325 -5.5214e-06 36.8614 -103.921 -36.1534 -107.487 16.2764 -49.4936 17.8167 -179.709 26.6789 173.839 8.38708 -12.0636 -3.70575 3.44667 -50.5681 15.9927 -26.7105 78.2217 29.776 1.79649 3.96115 -5.37251 
-15.3806 36.4258 20.8286 -55.3207 -19.4042 -91.6182 23.3171 69.4496 -25.4229 -19.4871 -12.5427 -13.2491 -0.000946429 1.35394e-05 -27.4619 54.8068 -67.7765 29.2783 -23.0552 10.3001 43.2999 68.137 -12.2084 -17.5724 -0.00141582 -5.6911e-06 34.4441 -104.045 -34.0494 -110.89 14.4487 -49.585 9.6639 -178.728 26.8769 170.837 9.90673 -12.0522 -6.73439 1.082 -51.2611 15.0766 -27.0404 78.4418 34.1355 7.87682 0.33419 -1.87291 
-15.8911 36.3583 19.4429 -54.6033 -21.4726 -86.537 18.0761 69.9208 -19.002 -28.4183 -13.6903 0.18066 -0.00087544 1.202e-05 -38.0247 51.5139 -54.3884 29.6791 -21.4274 8.1331 41.3659 66.6513 -6.89905 -13.6231 -0.00147966 -6.13262e-06 27.2949 -105.876 -33.6328 -119.879 11.3875 -50.2356 1.90552 -177.731 27.2436 169.73 10.3275 -10.9783 -9.6167 -0.989082 -51.4617 14.0811 -25.7875 78.2516 34.3785 11.6168 -0.950144 3.26018 
-16.4575 36.3048 18.2709 -53.9529 -23.3084 -82.158 11.8004 70.4999 -11.6107 -39.2374 -15.7138 7.9321 -0.000800706 1.25393e-05 -34.7368 22.3346 -59.7867 6.60834 -19.2596 5.47487 40.5115 58.688 0.160433 -2.58125 -0.00151555 -6.16692e-06 26.6671 -95.0534 -40.5855 -112.031 7.20126 -50.2499 -5.61507 -176.774 27.5006 170.515 10.0311 -10.6523 -12.5834 -2.76969 -51.3159 13.2725 -23.8147 77.8779 33.5453 15.0977 -0.400565 8.85193 
-17.1081 36.2254 17.253 -53.3347 -25.0055 -78.1075 4.51506 70.9572 -3.27829 -51.9653 -18.2652 12.0634 -0.000721228 1.3409e-05 -28.5053 28.3714 -44.2964 19.6834 -16.7432 2.97315 40.5424 43.2195 2.82365 17.6135 -0.00152654 -6.39412e-06 22.0965 -72.4817 -45.133 -88.1701 2.85653 -49.4869 -13.3857 -175.811 27.5921 171.258 9.59559 -11.4353 -15.7557 -4.27942 -51.0612 12.9442 -22.1975 77.5481 31.8285 17.6604 0.876497 12.5443 
-17.8825 36.1808 16.2914 -52.7222 -26.5597 -73.9953 -3.288 71.0977 5.52202 -63.1047 -22.339 14.6847 -0.000637619 1.4066e-05 -22.805 21.2369 -41.6302 17.713 -14.6032 0.762696 40.6087 26.8545 -1.2263 33.2467 -0.0015145 -6.67916e-06 14.5665 -59.0643 -51.2429 -74.3146 -1.24278 -48.1107 -21.141 -174.822 27.7064 172.003 9.11497 -12.5427 -18.9121 -5.66023 -50.5574 13.0346 -21.9986 77.3874 30.2648 19.8287 1.07873 12.4736 
-18.8575 36.2116 15.3492 -52.0939 -27.8792 -69.5968 -10.9186 70.8362 14.2112 -72.0357 -27.8286 9.44272 -0.000552994 1.49929e-05 -10.7112 26.4666 -49.2836 21.8984 -13.7599 -1.3698 40.2394 11.7092 -10.9881 40.3324 -0.00148116 -6.8612e-06 6.15568 -43.6523 -48.4824 -57.9849 -4.78107 -46.4303 -28.4252 -173.864 27.8989 173.122 8.7782 -13.2766 -21.8081 -6.22761 -50.0199 13.4578 -24.71 77.747 33.9512 24.3134 0.346029 13.9723 
-19.982 36.342 14.3045 -51.3379 -29.0459 -64.7327 -17.9443 70.1283 22.3395 -77.6207 -33.32 15.9473 -0.000459878 1.36168e-05 -26.8251 42.0223 -46.0885 38.843 -14.6434 -3.17218 39.9201 1.62587 -24.832 40.7753 -0.00142733 -6.85997e-06 6.24988 -34.8382 -41.6974 -41.4436 -8.0524 -45.1752 -34.8632 -173.067 28.2512 174.799 9.02896 -12.506 -23.8154 -6.45515 -49.4977 13.7365 -28.8524 78.2733 38.8523 29.2229 -0.51378 16.8933 
-21.3597 36.5583 13.0061 -50.4033 -30.0997 -58.8507 -23.6041 68.8874 29.1699 -80.2297 -36.5914 19.1086 -0.000367339 1.12034e-05 -42.7583 56.9438 -38.8434 53.524 -16.4455 -4.26684 40.5068 -1.91334 -41.7683 40.5279 -0.00135633 -6.89013e-06 3.21447 -25.2362 -26.7542 -25.8951 -11.3268 -44.629 -40.2527 -172.723 28.8566 175.5 10.8577 -9.31753 -22.4824 -7.22866 -49.0605 13.2065 -30.7947 78.7347 39.4441 31.9945 -1.12761 17.5595 
-23.4496 36.9272 11.442 -49.5961 -30.7887 -50.929 -26.4801 67.1256 33.4282 -82.3484 -35.7414 12.5946 -0.000279113 1.06953e-05 -45.4986 60.5831 -26.8284 41.2542 -17.6236 -4.93552 41.9024 1.32089 -55.3176 43.221 -0.00126818 -6.71584e-06 13.3019 -19.5682 -8.90777 -16.3297 -13.3787 -44.2511 -43.8584 -173.271 29.8383 173.223 14.886 -3.52205 -14.995 -8.61469 -49.2349 11.4774 -34.7341 81.1397 40.344 33.8385 -1.65625 19.0858 
-26.507 38.0471 9.77695 -49.4134 -30.8385 -40.3328 -25.9459 65.1241 34.4207 -79.4856 -31.6988 4.19209 -0.000194995 1.15047e-05 -41.0642 66.6602 -12.8667 28.0366 -17.5806 -5.97265 42.8066 7.11881 -60.8241 47.6294 -0.00116548 -5.82721e-06 32.392 -16.9392 5.52032 -11.6268 -13.4622 -43.9221 -43.2703 -174.589 31.6137 175.271 20.8552 6.70382 -4.28887 -8.7372 -49.9241 9.00678 -50.1197 85.1676 56.1373 32.5785 -5.14711 22.2844 
-30.1028 40.3027 8.61248 -49.231 -30.7874 -27.3896 -24.1108 63.3173 33.2243 -72.8615 -27.0001 -4.14873 -0.000115371 1.24952e-05 -35.0265 77.3682 -4.13159 20.0493 -17.0935 -7.61429 42.0849 10.7279 -61.6086 52.6192 -0.0010527 -5.48363e-06 37.381 -22.76 8.68223 -6.10934 -11.4813 -45.1292 -37.8485 -175.757 35.0385 -177.025 26.0888 13.3406 4.38279 -6.7485 -50.7483 7.11976 -113.713 87.2709 121.319 24.5656 -12.4063 26.2434 
-33.6748 43.7034 8.45337 -47.5483 -31.1962 -12.4818 -23.1357 62.4206 30.9821 -64.8851 -24.0056 -14.4114 -4.19069e-05 1.36686e-05 -26.3905 86.9271 -4.88902 15.5457 -16.4534 -8.70681 39.2659 13.4522 -63.7024 55.9464 -0.000930662 -5.47347e-06 37.5198 -19.1757 9.84293 -1.38683 -8.58476 -50.4725 -29.7711 -176.053 41.5939 -176.8 26.6297 3.47865 0.440458 -5.92095 -48.9103 6.40911 -118.087 87.7377 128.286 24.0764 -24.5847 30.332 
-36.8303 48.7339 9.52909 -44.2771 -31.8469 4.5746 -21.8327 63.3156 26.8843 -57.6151 -22.4575 -22.8803 2.57208e-05 1.412e-05 -22.2758 90.7026 -2.63219 9.23507 -14.604 -7.94848 34.1483 19.771 -65.2958 60.8376 -0.000801076 -5.64745e-06 35.0797 -20.6146 1.34429 4.8608 -4.10599 -52.9854 -17.3517 -175.518 51.795 177.139 21.9283 -4.98806 -4.79141 -5.0975 -47.317 7.26399 -67.7331 87.5467 78.5218 21.4388 -27.5154 29.8132 
-39.4122 54.9322 12.1398 -40.1542 -32.2355 23.9219 -17.8643 66.0392 19.1567 -49.4894 -21.076 -22.9837 8.88597e-05 1.26902e-05 -33.7298 89.8854 4.15222 5.73027 -10.6099 -5.99468 26.932 27.5078 -64.0678 64.323 -0.000665725 -5.85801e-06 31.9116 -20.4037 -9.20974 5.60017 -2.01511 -50.1416 -5.53063 -173.608 65.0287 167.519 8.87062 -8.80315 -6.39272 -3.07658 -44.0316 8.43737 -41.2759 85.6003 51.0112 12.2686 -29.0199 22.1625 
-41.0359 61.3745 16.169 -36.8804 -32.1078 43.6498 -9.16093 69.3762 6.95835 -39.9752 -19.9056 -24.201 0.000141288 1.1534e-05 -40.8965 89.0335 8.44063 4.03781 -4.89374 -5.06618 18.7773 32.0447 -60.3336 65.3535 -0.000526438 -6.02296e-06 29.2181 -18.9454 -17.3163 3.89598 -2.15349 -48.6558 0.849915 -165.707 76.5731 164.787 10.3119 -12.0228 -0.85886 1.1452 -41.4571 9.63334 -31.8119 83.5329 39.5567 5.9467 -28.9163 12.3783 
-41.751 67.3277 20.9488 -34.8704 -31.6867 60.952 2.29674 72.2066 -7.03656 -30.0962 -20.2157 -25.8904 0.000182154 1.07339e-05 -45.2947 87.5704 11.1326 3.48325 1.03887 -6.19122 11.6056 33.6061 -56.6253 61.8249 -0.000384175 -5.53887e-06 36.6189 -16.5007 -23.2932 2.64948 -3.08793 -48.5901 2.32111 -118.523 84.9034 118.822 10.0157 -13.7881 3.29923 6.15118 -42.4488 12.0358 -26.8016 81.9633 35.3357 3.13944 -30.9175 4.8804 
-41.8106 72.6025 25.8368 -33.0693 -31.6101 74.3509 11.9275 75.0346 -18.0741 -21.0145 -22.243 -28.2511 0.000210082 1.05477e-05 -46.2705 85.331 11.9612 3.32986 6.13729 -8.00785 6.40533 35.2796 -51.0941 58.9072 -0.000242231 -5.19219e-06 41.2027 -16.4942 -21.0282 2.00452 -5.45784 -49.3784 0.0511821 -35.5812 80.1279 41.2308 5.14723 -15.7653 3.23228 10.967 -44.567 15.9318 -21.7314 80.7657 30.7844 1.05546 -32.3548 0.581825 
-41.649 76.7814 30.7233 -29.7851 -32.0908 84.6168 16.5775 78.7277 -23.3091 -13.4724 -25.1411 -30.8398 0.000223824 1.09295e-05 -44.2523 82.4986 11.1237 2.28136 10.3721 -8.92047 2.52393 37.5502 -45.5016 55.3831 -0.000102058 -4.59026e-06 48.3054 -14.4457 -17.2112 1.03502 -8.49795 -52.4927 -4.1017 -21.658 72.6271 22.7711 5.3594 -14.0281 2.20835 20.0738 -47.2607 21.7863 -25.6577 83.8047 32.3921 0.35854 -34.4116 -0.422954 
-41.463 79.6333 35.8333 -24.7754 -32.0664 93.1841 13.4239 82.611 -20.6442 -8.30067 -27.7756 -33.648 0.000223067 1.16186e-05 -40.4092 79.3703 9.22853 -0.752315 13.9453 -8.95071 -0.964419 41.1539 -38.7197 52.4758 3.41091e-05 -3.96116e-06 54.9704 -11.9731 -12.0582 0.954941 -12.2377 -55.8219 -8.86843 -16.4426 67.3073 19.5651 11.4774 -10.6218 2.48515 30.6292 -49.2608 28.1612 -40.2332 87.5972 44.8092 0.424443 -35.8058 0.444091 
